<?xml version="1.0" encoding="UTF-8"?>
<svg xmlns="http://www.w3.org/2000/svg" width="1200" height="630" viewBox="0 0 1200 630" role="img">
  <rect width="1200" height="630" fill="#ffffff"/>
  <defs>
    <radialGradient id="blob" cx="75%" cy="50%" r="50%">
      <stop offset="0%" stop-color="#0066FF" stop-opacity="0.1"/>
      <stop offset="100%" stop-color="#0066FF" stop-opacity="0"/>
    </radialGradient>
  </defs>
  <rect width="1200" height="630" fill="url(#blob)"/>
  <text x="72" y="120" fill="#0066FF" font-family="system-ui, -apple-system, Segoe UI, sans-serif" font-size="18" font-weight="700" letter-spacing="0.2em">ERP</text>
  <text x="72" y="180" fill="#0F172A" font-family="system-ui, -apple-system, Segoe UI, sans-serif" font-size="38" font-weight="700"><tspan x="72" dy="0">ERPNext vs Odoo for Small</tspan><tspan x="72" dy="44">Businesses in Pakistan</tspan></text>
  <text x="1080" y="56" text-anchor="end" fill="#94A3B8" font-family="system-ui, sans-serif" font-size="20" font-weight="700">Code<tspan fill="#0066FF">Vente</tspan></text>
  
    <rect x="620" y="120" width="280" height="200" rx="12" fill="#fff" stroke="#CBD5E1" stroke-width="2"/>
    <rect x="620" y="120" width="280" height="36" rx="12" fill="#E8F1FF"/>
    <circle cx="640" cy="138" r="6" fill="#F87171"/><circle cx="660" cy="138" r="6" fill="#FBBF24"/><circle cx="680" cy="138" r="6" fill="#34D399"/>
    
      <circle cx="650" cy="178" r="10" fill="#0066FF"/>
      <path d="M645 178 L649 182 L655 174" stroke="#fff" stroke-width="2" stroke-linecap="round"/>
      <rect x="670" y="170" width="200" height="16" rx="8" fill="#E2E8F0"/>
    
      <circle cx="650" cy="210" r="10" fill="#0066FF"/>
      <path d="M645 210 L649 214 L655 206" stroke="#fff" stroke-width="2" stroke-linecap="round"/>
      <rect x="670" y="202" width="200" height="16" rx="8" fill="#E2E8F0"/>
    
      <circle cx="650" cy="242" r="10" fill="#0066FF"/>
      <path d="M645 242 L649 246 L655 238" stroke="#fff" stroke-width="2" stroke-linecap="round"/>
      <rect x="670" y="234" width="200" height="16" rx="8" fill="#E2E8F0"/>
    
      <circle cx="650" cy="274" r="10" fill="#0066FF"/>
      <path d="M645 274 L649 278 L655 270" stroke="#fff" stroke-width="2" stroke-linecap="round"/>
      <rect x="670" y="266" width="200" height="16" rx="8" fill="#E2E8F0"/>
    
    <circle cx="940" cy="180" r="48" fill="#E8F1FF" stroke="#0066FF" stroke-width="3"/>
    <path d="M940 140 A40 40 0 0 1 980 180 L940 180 Z" fill="#0066FF"/>
    <rect x="900" y="260" width="20" height="60" rx="4" fill="#0066FF"/>
    <rect x="930" y="240" width="20" height="80" rx="4" fill="#94A3B8"/>
    <rect x="960" y="220" width="20" height="100" rx="4" fill="#0066FF" opacity="0.5"/>
  
</svg>